<?xml version="1.0" encoding="UTF-8" standalone="no"?>
<svg
   xmlns:dc="http://purl.org/dc/elements/1.1/"
   xmlns:cc="http://creativecommons.org/ns#"
   xmlns:rdf="http://www.w3.org/1999/02/22-rdf-syntax-ns#"
   xmlns:svg="http://www.w3.org/2000/svg"
   xmlns="http://www.w3.org/2000/svg"
   id="svg2"
   viewBox="0 0 16 16"
   height="100%"
   width="100%"
   version="1.1"><metadata
   id="metadata8">
  <rdf:RDF>
    <cc:Work
       rdf:about="">
      <dc:format>image/svg+xml</dc:format>
      <dc:type
         rdf:resource="http://purl.org/dc/dcmitype/StillImage" />
      <dc:title></dc:title>
    </cc:Work>
  </rdf:RDF>
</metadata>
<defs
   id="defs6" />
<rect
   style="fill:none;stroke:none;visibility:hidden"
   id="canvas"
   y="0"
   x="0"
   height="16"
   width="16" />

     id=&quot;defs6&quot;&gt;
  <path
   style="fill:#1a1a1a;fill-rule:evenodd"
   d="m 2,1 0,10 2,0 0,-3.5 2.5,0 c 1.9760775,3e-7 3.5,-1 3.5,-3.25 C 10,2 8.4868489,1.0000002 6.96875,1 Z M 4,3 6.5,3 C 7.4635709,3 8,3.5254308 8,4.25 8,4.9745692 7.3682202,5.5 6.5,5.5 L 4,5.5 Z"
   id="parking-motorcycle" />
<path
   id="path3469"
   d="m 14.188781,15.934778 c 0.643285,-0.05576 1.217738,-0.438388 1.508426,-1.004715 0.349616,-0.681142 0.222796,-1.507471 -0.316261,-2.060306 -0.387737,-0.397678 -0.933261,-0.604842 -1.487661,-0.564932 -0.614624,0.04426 -1.153807,0.36498 -1.474294,0.877007 -0.277759,0.443737 -0.342091,1.003186 -0.173201,1.506175 0.183037,0.545158 0.62143,0.974341 1.184379,1.159472 0.227647,0.0749 0.517212,0.108201 0.758612,0.0873 z m -0.423476,-0.649805 c -0.08487,-0.01828 -0.227996,-0.06706 -0.297481,-0.101256 -0.08896,-0.0438 -0.211875,-0.131164 -0.294979,-0.209656 -0.328188,-0.310048 -0.450461,-0.758005 -0.32461,-1.189247 0.03094,-0.105975 0.124471,-0.287684 0.194175,-0.377208 0.223551,-0.287086 0.554582,-0.457695 0.921199,-0.474809 0.62621,-0.02925 1.160678,0.393358 1.26724,1.001989 0.01994,0.113751 0.01361,0.331449 -0.01281,0.442276 -0.115083,0.48265 -0.505531,0.840252 -1.005238,0.920639 -0.104004,0.01661 -0.342399,0.01 -0.447488,-0.01262 z m -7.2297179,0.649871 c 0.2053945,-0.02193 0.4343547,-0.08493 0.6153265,-0.169613 0.5703992,-0.266814 0.9547669,-0.775883 1.0488659,-1.389134 0.019708,-0.128371 0.019801,-0.367105 2.562e-4,-0.502855 -0.1060308,-0.735707 -0.657039,-1.333937 -1.3967951,-1.516476 -0.1640501,-0.04048 -0.2285268,-0.04722 -0.4550083,-0.04746 -0.1747193,-1.67e-4 -0.2364892,0.0033 -0.3078054,0.01562 -0.4035536,0.07227 -0.7339135,0.238235 -1.013252,0.50907 -0.2881349,0.279342 -0.4682075,0.624781 -0.5321671,1.020799 -0.023808,0.14728 -0.021152,0.417351 0.0055,0.564599 0.1410297,0.778642 0.7444616,1.365938 1.5398981,1.498697 0.1238471,0.0206 0.3770996,0.02924 0.4951601,0.01661 z M 6.1452372,15.296737 C 5.9394884,15.264173 5.7428995,15.177105 5.5706867,15.041986 5.3469354,14.866459 5.1839987,14.590838 5.1384472,14.310831 c -0.017704,-0.108932 -0.012952,-0.334339 0.00908,-0.429813 0.053383,-0.231356 0.1537816,-0.41456 0.318866,-0.581913 0.1005146,-0.101887 0.1934441,-0.169612 0.3215356,-0.234347 0.1839443,-0.09295 0.3444164,-0.129668 0.5647665,-0.129236 0.1601598,3.32e-4 0.263698,0.01695 0.4031624,0.0649 0.3642358,0.125115 0.660715,0.429381 0.7648776,0.785022 0.2019049,0.689384 -0.2418191,1.382488 -0.9672998,1.510993 -0.091658,0.01628 -0.3062958,0.01628 -0.4081941,3e-4 z m 2.2656396,-0.521299 c 0.00279,-0.0033 0.3836502,-0.0083 0.8468259,-0.01296 0.7899623,-0.0077 0.9543433,-0.01262 1.1990133,-0.03483 0.545013,-0.04975 0.927987,-0.15642 1.19552,-0.332944 0.02945,-0.01927 0.0901,-0.06975 0.134786,-0.111823 l 0.08125,-0.07647 0.01542,-0.07158 c 0.193061,-0.896271 0.583411,-1.474263 1.203551,-1.782117 0.289141,-0.143559 0.621141,-0.221985 1.034623,-0.244383 l 0.114277,-0.0063 0.0341,-0.06613 c 0.07526,-0.145952 0.137354,-0.313371 0.171849,-0.46331 0.01757,-0.07637 0.02045,-0.112356 0.01989,-0.2499 -4.65e-4,-0.149474 -0.0023,-0.166156 -0.02512,-0.238866 -0.06925,-0.221102 -0.21214,-0.394537 -0.45559,-0.552884 -0.202907,-0.131995 -0.484971,-0.254418 -1.004126,-0.435861 -0.130034,-0.04546 -0.274143,-0.096703 -0.32024,-0.1139166 -0.04608,-0.017281 -0.08588,-0.029246 -0.0884,-0.026917 -0.0023,0.0033 -0.0099,0.069983 -0.0164,0.1500386 -0.0065,0.08005 -0.01286,0.150372 -0.01421,0.156221 -0.0014,0.006 -0.377766,-0.2653515 -0.836567,-0.6027493 C 10.300261,8.627419 10.413401,8.7084706 10.3237,8.6708198 10.279486,8.652209 10.213029,8.6294764 10.176046,8.6202067 10.085762,8.5976079 9.9391738,8.5899619 9.8449354,8.6032553 9.7506174,8.6165488 9.6066711,8.6626029 9.5121714,8.7099605 9.3681926,8.7821375 9.2017522,8.9654092 8.7751175,9.5215346 8.496995,9.8840552 8.1696729,10.309648 8.1346088,10.354344 l -0.029259,0.03728 0.6044802,0.440714 c 0.3324658,0.242422 0.6100479,0.441146 0.6168549,0.441643 0.0068,0 0.2753923,-0.35481 0.5968533,-0.789575 0.3214658,-0.434731 0.5878988,-0.7894756 0.5920778,-0.7883122 0.02022,0.00562 1.828075,1.3599902 1.828075,1.3695282 0,0.01528 -0.0819,0.146449 -0.121862,0.195001 -0.147068,0.178718 -0.336533,0.323772 -0.568363,0.43513 -0.08663,0.0416 -0.256952,0.113286 -0.269205,0.113286 -0.0014,0 -0.0053,-0.01562 -0.0085,-0.0347 -0.0082,-0.04695 -0.04459,-0.143093 -0.07062,-0.186261 -0.04814,-0.07982 -0.140587,-0.144722 -0.241656,-0.169613 -0.03471,-0.0087 -0.242793,-0.01063 -0.937026,-0.0093 l -0.8924147,0 L 8.6337851,10.9526 C 8.303611,10.70148 8.0320485,10.496045 8.0302827,10.496045 c -0.00186,0 -0.02637,0.03223 -0.054669,0.07164 -0.028327,0.03942 -0.1170681,0.156719 -0.1972599,0.260699 -0.2309682,0.299447 -0.3031416,0.414893 -0.3256542,0.521001 l -0.010576,0.04998 -0.9116846,0 -0.91168,0 -0.03266,0.03256 c -0.041233,0.04114 -0.089771,0.134619 -0.1036966,0.199686 -0.029492,0.13781 0.023389,0.319186 0.1276163,0.43769 l 0.020081,0.02293 0.3122594,0.005 c 0.4890055,0.0079 0.7760314,0.04493 1.101844,0.14213 0.7415591,0.221254 1.1782946,0.704968 1.3017783,1.441872 0.04291,0.25618 0.046847,0.609229 0.010157,0.914658 -0.023761,0.197627 -0.025065,0.182406 0.015934,0.182406 0.018823,0 0.036294,-0.0033 0.038904,-0.0046 z m 2.8978742,-6.1534363 0,-0.3123071 -0.02898,-0.00464 c -0.03397,-0.00562 -0.687547,-0.091518 -0.696511,-0.091518 -0.0069,0 -0.0084,-0.4898626 -0.0014,-0.4965753 0.0023,-0.0033 0.167918,0.022269 0.367661,0.054628 0.199742,0.032564 0.364822,0.05742 0.36685,0.055467 0.0063,-0.00633 -0.01766,-0.1186362 -0.04086,-0.1911469 -0.115317,-0.3607916 -0.426118,-0.58384 -0.930909,-0.668082 -0.07174,-0.011964 -0.340707,0.020939 -0.467611,0.057188 -0.2877575,0.082214 -0.4886654,0.2948285 -0.6238481,0.6601728 -0.064938,0.1755276 -0.075607,0.402863 -0.027675,0.5891573 0.022597,0.087835 0.1055557,0.2697718 0.1460151,0.3202502 l 0.016493,0.0206 0.079013,-0.036552 c 0.091552,-0.042369 0.2049672,-0.080688 0.2991781,-0.1011557 0.090749,-0.01961 0.3015299,-0.01994 0.3903549,-3.319e-4 0.205795,0.045296 0.394063,0.1402688 0.597939,0.3016732 0.05082,0.04021 0.101013,0.079787 0.111524,0.087897 0.0137,0.010635 0.07636,0.022269 0.221249,0.041236 0.111175,0.014623 0.206527,0.026587 0.211894,0.026587 0.0069,0 0.0097,-0.092117 0.0097,-0.3123071 z"
   style="fill:#000000" />
</svg>
