<?xml version="1.0" encoding="UTF-8" standalone="no"?>
<svg
   xmlns:dc="http://purl.org/dc/elements/1.1/"
   xmlns:cc="http://creativecommons.org/ns#"
   xmlns:rdf="http://www.w3.org/1999/02/22-rdf-syntax-ns#"
   xmlns:svg="http://www.w3.org/2000/svg"
   xmlns="http://www.w3.org/2000/svg"
   version="1.1"
   width="100%"
   height="100%"
   viewBox="0 0 16 16"
   id="svg2">
  <metadata
     id="metadata8">
    <rdf:RDF>
      <cc:Work
         rdf:about="">
        <dc:format>image/svg+xml</dc:format>
        <dc:type
           rdf:resource="http://purl.org/dc/dcmitype/StillImage" />
        <dc:title></dc:title>
      </cc:Work>
    </rdf:RDF>
  </metadata>
  <defs
     id="defs6" />
  <rect
     width="16"
     height="16"
     x="0"
     y="0"
     id="canvas"
     style="fill:none;stroke:none;visibility:hidden" />
     id="defs6">
  <path
     id="parking-motorcycle"
     d="M 2 1 L 2 11 L 4 11 L 4 7.5 L 6.5 7.5 C 8.4760775 7.5000003 10 6.5 10 4.25 C 10 2 8.4868489 1.0000002 6.96875 1 L 2 1 z M 4 3 L 6.5 3 C 7.4635709 3 8 3.5254308 8 4.25 C 8 4.9745692 7.3682202 5.5 6.5 5.5 L 4 5.5 L 4 3 z M 11.615234 8.453125 C 11.54158 8.5119674 12.259578 9.4940765 11.441406 10.253906 C 11.302409 10.41585 11.123397 10.547548 10.904297 10.648438 C 10.82242 10.68614 10.661971 10.75 10.650391 10.75 C 10.649091 10.75 10.645678 10.73604 10.642578 10.71875 C 10.634878 10.676191 10.600762 10.589891 10.576172 10.550781 C 10.530677 10.478434 10.443176 10.419024 10.347656 10.396484 C 8.6281551 10.381358 7.0012449 10.375159 5.2011719 10.380859 L 5.1699219 10.410156 C 5.1309519 10.447436 5.0854456 10.532827 5.0722656 10.591797 C 5.0443856 10.716665 5.0948494 10.880888 5.1933594 10.988281 L 5.2128906 11.007812 L 5.5078125 11.013672 C 5.9699805 11.020772 6.2408971 11.052535 6.5488281 11.140625 C 7.2496871 11.34111 7.6625919 11.779515 7.7792969 12.447266 C 7.8199069 12.679416 7.8237325 13.000581 7.7890625 13.277344 C 7.7666225 13.456417 7.7639744 13.441406 7.8027344 13.441406 C 7.8205144 13.441406 7.8374438 13.4397 7.8398438 13.4375 C 7.8423447 13.43528 8.202872 13.429881 8.640625 13.425781 C 9.3872319 13.418781 9.5421935 13.414801 9.7734375 13.394531 C 10.288537 13.349451 10.651447 13.253724 10.904297 13.09375 C 10.93212 13.076138 10.98901 13.030297 11.03125 12.992188 L 11.107422 12.921875 L 11.123047 12.857422 C 11.305512 12.04527 11.673665 11.521152 12.259766 11.242188 C 12.533039 11.112115 12.847493 11.041794 13.238281 11.021484 L 13.345703 11.015625 L 13.376953 10.955078 C 13.448076 10.822813 13.508416 10.671013 13.541016 10.535156 C 13.557627 10.465936 13.559112 10.433247 13.558594 10.308594 C 13.558024 10.173159 13.556666 10.15963 13.535156 10.09375 C 13.46971 9.8933764 13.335556 9.7352899 13.105469 9.5917969 C 11.988789 8.714856 11.659427 8.4178196 11.615234 8.453125 z M 13.021484 11.199219 C 12.440594 11.239304 11.931807 11.530176 11.628906 11.994141 C 11.366394 12.396238 11.305222 12.903564 11.464844 13.359375 C 11.637833 13.853364 12.05193 14.242371 12.583984 14.410156 C 12.799135 14.478006 13.072629 14.507231 13.300781 14.488281 C 13.908758 14.437774 14.451814 14.091337 14.726562 13.578125 C 15.056992 12.96091 14.937198 12.211923 14.427734 11.710938 C 14.061281 11.35058 13.545459 11.163049 13.021484 11.199219 z M 5.890625 11.203125 C 5.725495 11.202935 5.6670094 11.205117 5.5996094 11.216797 C 5.2182034 11.282287 4.9065871 11.434273 4.6425781 11.679688 C 4.3702581 11.932826 4.1991219 12.244642 4.1386719 12.603516 C 4.1162319 12.73698 4.1192512 12.981806 4.1445312 13.115234 C 4.2778173 13.820821 4.8478254 14.352359 5.5996094 14.472656 C 5.7166524 14.491386 5.9567754 14.499651 6.0683594 14.488281 C 6.2624824 14.468491 6.4773995 14.410694 6.6484375 14.333984 C 7.1875305 14.09219 7.551685 13.631868 7.640625 13.076172 C 7.659245 12.959844 7.659075 12.744103 7.640625 12.621094 C 7.540403 11.954417 7.0194655 11.41151 6.3203125 11.246094 C 6.1652635 11.209424 6.104675 11.203334 5.890625 11.203125 z M 13.087891 11.767578 C 13.679733 11.741082 14.184443 12.124252 14.285156 12.675781 C 14.303976 12.778852 14.298407 12.975745 14.273438 13.076172 C 14.164673 13.513536 13.796503 13.839249 13.324219 13.912109 C 13.225927 13.927289 12.999711 13.921081 12.900391 13.900391 C 12.82018 13.883791 12.684811 13.839594 12.619141 13.808594 C 12.535061 13.768914 12.418394 13.688337 12.339844 13.617188 C 12.029703 13.336238 11.914258 12.931784 12.033203 12.541016 C 12.062437 12.444978 12.150917 12.280329 12.216797 12.199219 C 12.428077 11.939076 12.741395 11.783088 13.087891 11.767578 z M 5.8945312 11.771484 C 6.0458992 11.771794 6.1435816 11.786678 6.2753906 11.830078 C 6.6196356 11.943448 6.8995969 12.218746 6.9980469 12.541016 C 7.1888729 13.165687 6.7696474 13.79371 6.0839844 13.910156 C 5.9973644 13.924866 5.7955287 13.924776 5.6992188 13.910156 C 5.5047618 13.880716 5.31901 13.80211 5.15625 13.679688 C 4.94478 13.520625 4.7910969 13.271319 4.7480469 13.017578 C 4.7312969 12.918868 4.7350394 12.713493 4.7558594 12.626953 C 4.8063094 12.417317 4.9006166 12.25124 5.0566406 12.099609 C 5.1516406 12.007289 5.2402661 11.947332 5.3613281 11.888672 C 5.5351801 11.804435 5.6862733 11.77108 5.8945312 11.771484 z"
     style="fill:#1a1a1a;fill-rule:evenodd" />
</svg>
